<?xml version="1.0" encoding="UTF-8"?>
<svg id="Layer_1" data-name="Layer 1" xmlns="http://www.w3.org/2000/svg" viewBox="0 0 32 32">
  <defs>
    <style>
      .cls-1 {
        fill: #fff;
      }
    </style>
  </defs>
  <path class="cls-1" d="M18.99,10c1.11,0,2.01,.9,2.01,2.01v4.27c0,.83-.5,1.56-1.29,1.87l-.41,.16-.16,.41c-.3,.78-1.04,1.29-1.87,1.29h-4.27c-1.11,0-2.01-.9-2.01-2.01v-4.27c0-.83,.5-1.56,1.29-1.87l.41-.16,.16-.41c.3-.78,1.04-1.29,1.87-1.29h4.27m0-1h-4.27c-1.28,0-2.36,.8-2.8,1.92-1.12,.44-1.92,1.52-1.92,2.8v4.27c0,1.66,1.35,3.01,3.01,3.01h4.27c1.28,0,2.36-.8,2.8-1.92,1.12-.44,1.92-1.52,1.92-2.8v-4.27c0-1.66-1.35-3.01-3.01-3.01h0Z"/>
  <path class="cls-1" d="M16.77,11.71c1.38,0,2.51,1.13,2.51,2.51v3.26c0,1.38-1.13,2.51-2.51,2.51h-3.26c-1.38,0-2.51-1.13-2.51-2.51v-3.26c0-1.38,1.13-2.51,2.51-2.51h3.26m0-1h-3.26c-1.94,0-3.51,1.57-3.51,3.51v3.26c0,1.94,1.57,3.51,3.51,3.51h3.26c1.94,0,3.51-1.57,3.51-3.51v-3.26c0-1.94-1.57-3.51-3.51-3.51h0Z"/>
</svg>