<?xml version="1.0" encoding="UTF-8"?>
<svg id="Layer_1" data-name="Layer 1" xmlns="http://www.w3.org/2000/svg" viewBox="0 0 32 32">
  <defs>
    <style>
      .cls-1 {
        fill: #fff;
      }
    </style>
  </defs>
  <path class="cls-1" d="M18.49,11c1.38,0,2.51,1.13,2.51,2.51v4.98c0,1.38-1.13,2.51-2.51,2.51h-4.98c-1.38,0-2.51-1.13-2.51-2.51v-4.98c0-1.38,1.13-2.51,2.51-2.51h4.98m0-1h-4.98c-1.94,0-3.51,1.57-3.51,3.51v4.98c0,1.94,1.57,3.51,3.51,3.51h4.98c1.94,0,3.51-1.57,3.51-3.51v-4.98c0-1.94-1.57-3.51-3.51-3.51h0Z"/>
</svg>